<?xml version="1.0" encoding="UTF-8" standalone="no"?>
<svg
   viewBox="0 0 512 512"
   x="0px"
   y="0px"
   version="1.1"
   id="svg16"
   sodipodi:docname="sqlexplorer_file.svg"
   width="512"
   height="512"
   inkscape:version="1.1-rc (52f87abb86, 2021-05-02)"
   inkscape:export-filename="C:\tmp\sqlexplorer-backend\frontend\public\sqlexplorer_file_small.png"
   inkscape:export-xdpi="9"
   inkscape:export-ydpi="9"
   xmlns:inkscape="http://www.inkscape.org/namespaces/inkscape"
   xmlns:sodipodi="http://sodipodi.sourceforge.net/DTD/sodipodi-0.dtd"
   xmlns="http://www.w3.org/2000/svg"
   xmlns:svg="http://www.w3.org/2000/svg">
  <defs
     id="defs20" />
  <sodipodi:namedview
     id="namedview18"
     pagecolor="#ffffff"
     bordercolor="#666666"
     borderopacity="1.0"
     objecttolerance="10.0"
     gridtolerance="10.0"
     guidetolerance="10.0"
     inkscape:pageshadow="2"
     inkscape:pageopacity="0.0"
     inkscape:pagecheckerboard="0"
     showgrid="false"
     inkscape:zoom="1.6640625"
     inkscape:cx="256"
     inkscape:cy="271.92488"
     inkscape:window-width="2460"
     inkscape:window-height="1656"
     inkscape:window-x="3988"
     inkscape:window-y="350"
     inkscape:window-maximized="0"
     inkscape:current-layer="svg16" />
  <path
     fill="currentColor"
     d="M 286.22223,143.46792 V 15.023472 H 97.333332 c -12.561108,0 -22.666664,10.105555 -22.666664,22.666666 V 475.91236 c 0,12.56111 10.105556,22.66667 22.666664,22.66667 H 414.66667 c 12.56111,0 22.66666,-10.10556 22.66666,-22.66667 V 166.13458 H 308.88889 c -12.46666,0 -22.66666,-10.2 -22.66666,-22.66666 z m 144.5,-29.27778 -92.46111,-92.555557 c -4.25,-4.25 -10.01112,-6.611111 -16.05556,-6.611111 h -5.76111 V 135.91235 h 120.88888 v -5.7611 c 0,-5.95001 -2.3611,-11.71111 -6.6111,-15.96111 z"
     id="path2-1"
     style="fill:#006ac3;fill-opacity:1;stroke-width:0.944444"
     sodipodi:nodetypes="scsssssscssccscccsc" />
  <g
     aria-label="SQL"
     id="text4076"
     style="font-size:190.412px;line-height:125%;font-family:Arial;-inkscape-font-specification:Arial;letter-spacing:0px;word-spacing:0px;fill:#ffffff;stroke-width:4.76031px"
     transform="matrix(0.8939351,0,0,0.87674359,17.876514,28.963335)">
    <path
       d="m 139.65231,315.40739 q -20.73334,-7.90285 -28.07833,-16.54949 -7.345,-8.73961 -7.345,-23.4296 0,-18.87384 12.0867,-29.6589 12.0867,-10.78505 33.19194,-10.78505 9.57639,0 19.15277,2.23139 9.57638,2.13841 18.96682,6.41525 v 26.77668 q -8.83259,-6.22929 -17.9441,-9.48341 -9.11151,-3.25411 -18.03707,-3.25411 -9.94829,0 -15.24784,3.99791 -5.29955,3.99791 -5.29955,11.43588 0,5.76442 3.81196,9.57638 3.90493,3.71899 16.17758,8.27474 l 11.80777,4.46278 q 16.73543,6.13633 24.63828,16.27056 7.90284,10.13423 7.90284,25.56802 0,21.01226 -12.4586,31.42542 -12.36562,10.32018 -37.46877,10.32018 -10.32018,0 -20.73334,-2.51032 -10.32018,-2.41734 -19.98954,-7.25201 v -28.35726 q 10.97101,7.80987 21.19821,11.62183 10.32019,3.81195 20.36144,3.81195 10.13424,0 15.71271,-4.55575 5.57848,-4.64873 5.57848,-12.92347 0,-6.2293 -3.71899,-10.87803 -3.71898,-4.74171 -10.78505,-7.43797 z"
       style="font-weight:bold;font-family:monospace;-inkscape-font-specification:'monospace Bold'"
       id="path17634" />
    <path
       d="m 267.8643,378.44417 q -1.30164,0.27893 -2.23139,0.3719 -0.83677,0.18595 -1.67354,0.18595 -23.89448,0 -36.2601,-18.22302 -12.27265,-18.22303 -12.27265,-53.73933 0,-35.60928 12.27265,-53.8323 12.36562,-18.22302 36.44605,-18.22302 24.17339,0 36.44604,18.22302 12.36563,18.22302 12.36563,53.8323 0,24.45232 -5.8574,41.0018 -5.8574,16.45651 -17.01436,23.52258 l 17.29328,16.92138 -18.78087,13.94619 z m -3.71898,-118.82155 q -10.50614,0 -15.34082,11.24993 -4.83468,11.15695 -4.83468,36.16712 0,24.9172 4.83468,36.16712 4.83468,11.15696 15.34082,11.15696 10.5991,0 15.43378,-11.15696 4.83468,-11.24992 4.83468,-36.16712 0,-25.01017 -4.83468,-36.16712 -4.83468,-11.24993 -15.43378,-11.24993 z"
       style="font-weight:bold;font-family:monospace;-inkscape-font-specification:'monospace Bold'"
       id="path17636" />
    <path
       d="m 342.42994,376.30576 v -138.8111 h 27.42751 v 114.6377 h 58.66698 v 24.1734 z"
       style="font-weight:bold;font-family:monospace;-inkscape-font-specification:'monospace Bold'"
       id="path17638" />
  </g>
</svg>
